PathFileType	4	(X/Y/Z)	E:/New_biomech_experiments/MICROGRAVITY MOCAP/Session 2024-06-22/Neeraj_FullAction_pp_22_06_24_t02 (1).trc	
DataRate	CameraRate	NumFrames	NumMarkers	Units	OrigDataRate	OrigDataStartFrame	OrigNumFrames	
120.00	120.00	18	19	m	120.00	2843	7579	
Frame#	Time	RSHO			MarkerSet_RBAK			MarkerSet_LBHD			MarkerSet_RUPA			MarkerSet_PRSHO			MarkerSet_RELB			MarkerSet_CLAV			MarkerSet_RFHD			MarkerSet_LFHD			MarkerSet_C7			MarkerSet_RWRB			MarkerSet_RFRM			MarkerSet_RWRA			MarkerSet_MRELB			MarkerSet_DIA			MarkerSet_STRN			MarkerSet_ARSHO			MarkerSet_RBHD			MarkerSet_T10			
		X1	Y1	Z1	X2	Y2	Z2	X3	Y3	Z3	X4	Y4	Z4	X5	Y5	Z5	X6	Y6	Z6	X7	Y7	Z7	X8	Y8	Z8	X9	Y9	Z9	X10	Y10	Z10	X11	Y11	Z11	X12	Y12	Z12	X13	Y13	Z13	X14	Y14	Z14	X15	Y15	Z15	X16	Y16	Z16	X17	Y17	Z17	X18	Y18	Z18	X19	Y19	Z19	

2843	23.683	-0.04005	1.56014	0.10625	-0.10801	1.36859	0.00008	-0.02531	1.71739	-0.12347	-0.02224	1.44797	0.26440	-0.10536	1.47624	0.06931	-0.02663	1.38700	0.38541	0.11144	1.48711	-0.07010	0.07011	1.80876	0.02766	0.08920	1.82648	-0.07297	-0.08651	1.53008	-0.07934	-0.02658	1.22492	0.63070	-0.00610	1.32810	0.50552	0.07150	1.23333	0.61148	0.02676	1.28813	0.33803	0.08424	1.17358	0.10554	0.14573	1.32396	-0.05492	0.06821	1.49970	0.09027	-0.05230	1.71319	-0.02207	-0.10039	1.33576	-0.06547 
2844	23.692	-0.03998	1.56020	0.10623	-0.10794	1.36857	0.00011	-0.02529	1.71741	-0.12347	-0.02220	1.44821	0.26445	-0.10530	1.47624	0.06932	-0.02666	1.38732	0.38550	0.11147	1.48711	-0.07008	0.07004	1.80867	0.02758	0.08918	1.82651	-0.07298	-0.08646	1.53007	-0.07931	-0.02653	1.22548	0.63093	-0.00610	1.32849	0.50566	0.07153	1.23388	0.61167	0.02699	1.28850	0.33828	0.08433	1.17359	0.10552	0.14577	1.32421	-0.05479	0.06826	1.49977	0.09028	-0.05224	1.71322	-0.02202	-0.10037	1.33577	-0.06547 
2845	23.700	-0.03996	1.56023	0.10622	-0.10786	1.36859	0.00013	-0.02526	1.71742	-0.12345	-0.02214	1.44843	0.26452	-0.10526	1.47625	0.06933	-0.02664	1.38763	0.38556	0.11150	1.48713	-0.07010	0.07007	1.80866	0.02756	0.08919	1.82617	-0.07298	-0.08643	1.53006	-0.07928	-0.02657	1.22701	0.63162	-0.00607	1.32891	0.50581	0.07140	1.23463	0.61184	0.02708	1.28885	0.33851	0.08440	1.17357	0.10554	0.14581	1.32422	-0.05478	0.06830	1.49978	0.09022	-0.05200	1.71233	-0.02180	-0.10025	1.33573	-0.06541 
2846	23.708	-0.04001	1.56035	0.10606	-0.10780	1.36857	0.00018	-0.02521	1.71740	-0.12342	-0.02207	1.44860	0.26459	-0.10520	1.47622	0.06933	-0.02663	1.38796	0.38566	0.11152	1.48712	-0.07008	0.07023	1.80874	0.02766	0.08927	1.82648	-0.07298	-0.08641	1.53006	-0.07926	-0.02647	1.22754	0.63186	-0.00613	1.32932	0.50594	0.07152	1.23507	0.61212	0.02716	1.28914	0.33871	0.08445	1.17359	0.10552	0.14584	1.32422	-0.05479	0.06833	1.49985	0.09022	-0.05218	1.71323	-0.02200	-0.10020	1.33570	-0.06540 
2847	23.717	-0.04001	1.56040	0.10602	-0.10771	1.36856	0.00019	-0.02520	1.71740	-0.12343	-0.02198	1.44876	0.26462	-0.10515	1.47622	0.06936	-0.02661	1.38824	0.38575	0.11157	1.48714	-0.07011	0.07014	1.80866	0.02758	0.08932	1.82648	-0.07297	-0.08643	1.53004	-0.07925	-0.02638	1.22804	0.63209	-0.00606	1.32975	0.50609	0.07150	1.23556	0.61228	0.02729	1.28942	0.33889	0.08450	1.17358	0.10552	0.14587	1.32423	-0.05478	0.06833	1.49987	0.09022	-0.05190	1.71235	-0.02176	-0.10012	1.33570	-0.06538 
2848	23.725	-0.03991	1.56040	0.10609	-0.10765	1.36855	0.00021	-0.02515	1.71739	-0.12341	-0.02203	1.44952	0.26511	-0.10510	1.47624	0.06937	-0.02658	1.38852	0.38584	0.11156	1.48715	-0.07009	0.07019	1.80862	0.02761	0.08935	1.82648	-0.07294	-0.08636	1.53003	-0.07926	-0.02633	1.22853	0.63226	-0.00600	1.33015	0.50624	0.07154	1.23604	0.61250	0.02732	1.28967	0.33904	0.08461	1.17360	0.10556	0.14591	1.32423	-0.05478	0.06834	1.49990	0.09020	-0.05204	1.71316	-0.02193	-0.10010	1.33572	-0.06537 
2849	23.733	-0.03984	1.56044	0.10609	-0.10757	1.36855	0.00026	-0.02512	1.71742	-0.12337	-0.02194	1.44974	0.26516	-0.10508	1.47625	0.06935	-0.02661	1.38878	0.38589	0.11161	1.48713	-0.07008	0.07023	1.80863	0.02762	0.08937	1.82648	-0.07293	-0.08636	1.53002	-0.07924	-0.02626	1.22899	0.63248	-0.00598	1.33054	0.50633	0.07154	1.23654	0.61274	0.02741	1.28992	0.33918	0.08470	1.17360	0.10553	0.14600	1.32391	-0.05491	0.06840	1.49993	0.09016	-0.05180	1.71230	-0.02168	-0.10003	1.33569	-0.06531 
2850	23.742	-0.03986	1.56050	0.10600	-0.10751	1.36853	0.00027	-0.02513	1.71741	-0.12340	-0.02185	1.44996	0.26521	-0.10503	1.47625	0.06939	-0.02657	1.38902	0.38593	0.11165	1.48715	-0.07009	0.07027	1.80861	0.02763	0.08939	1.82647	-0.07292	-0.08635	1.53003	-0.07925	-0.02626	1.22945	0.63270	-0.00586	1.33046	0.50629	0.07166	1.23693	0.61297	0.02751	1.29021	0.33936	0.08476	1.17357	0.10554	0.14599	1.32425	-0.05481	0.06844	1.50001	0.09017	-0.05173	1.71228	-0.02164	-0.09996	1.33567	-0.06530 
2851	23.750	-0.03983	1.56056	0.10595	-0.10741	1.36855	0.00028	-0.02509	1.71742	-0.12338	-0.02180	1.45019	0.26522	-0.10497	1.47625	0.06940	-0.02650	1.38929	0.38597	0.11172	1.48717	-0.07003	0.07032	1.80861	0.02767	0.08944	1.82646	-0.07290	-0.08631	1.53001	-0.07923	-0.02616	1.22994	0.63298	-0.00546	1.33182	0.50744	0.07171	1.23745	0.61320	0.02753	1.29052	0.33954	0.08484	1.17357	0.10554	0.14603	1.32426	-0.05479	0.06847	1.50005	0.09016	-0.05197	1.71317	-0.02190	-0.09998	1.33571	-0.06527 
2852	23.758	-0.03983	1.56059	0.10592	-0.10737	1.36854	0.00032	-0.02507	1.71743	-0.12334	-0.02177	1.45039	0.26523	-0.10495	1.47624	0.06940	-0.02641	1.38954	0.38604	0.11171	1.48714	-0.07010	0.07034	1.80861	0.02767	0.08945	1.82646	-0.07293	-0.08629	1.53000	-0.07923	-0.02613	1.23044	0.63314	-0.00545	1.33218	0.50754	0.07176	1.23799	0.61344	0.02762	1.29079	0.33971	0.08492	1.17361	0.10555	0.14605	1.32426	-0.05484	0.06849	1.50009	0.09013	-0.05166	1.71230	-0.02163	-0.09985	1.33565	-0.06526 
2853	23.767	-0.03988	1.56070	0.10579	-0.10730	1.36851	0.00033	-0.02506	1.71742	-0.12334	-0.02172	1.45058	0.26526	-0.10488	1.47622	0.06939	-0.02629	1.38972	0.38536	0.11180	1.48720	-0.07006	0.07047	1.80867	0.02776	0.08949	1.82645	-0.07290	-0.08625	1.53000	-0.07922	-0.02590	1.23019	0.63298	-0.00546	1.33257	0.50769	0.07182	1.23852	0.61367	0.02767	1.29107	0.33990	0.08498	1.17362	0.10557	0.14609	1.32429	-0.05483	0.06855	1.50012	0.09013	-0.05165	1.71229	-0.02162	-0.09981	1.33564	-0.06526 
2854	23.775	-0.03982	1.56068	0.10583	-0.10723	1.36852	0.00033	-0.02507	1.71740	-0.12336	-0.02173	1.45074	0.26528	-0.10485	1.47624	0.06937	-0.02626	1.39001	0.38541	0.11179	1.48716	-0.07014	0.07041	1.80858	0.02770	0.08948	1.82646	-0.07290	-0.08623	1.52995	-0.07924	-0.02591	1.23164	0.63367	-0.00549	1.33275	0.50707	0.07189	1.23929	0.61400	0.02777	1.29139	0.34009	0.08522	1.17352	0.10564	0.14614	1.32429	-0.05483	0.06854	1.50018	0.09011	-0.05192	1.71318	-0.02189	-0.09969	1.33562	-0.06521 
2855	23.783	-0.03980	1.56073	0.10578	-0.10715	1.36854	0.00036	-0.02504	1.71741	-0.12334	-0.02173	1.45093	0.26529	-0.10478	1.47624	0.06938	-0.02626	1.39030	0.38548	0.11185	1.48721	-0.07005	0.07044	1.80858	0.02773	0.08961	1.82646	-0.07280	-0.08622	1.52996	-0.07925	-0.02595	1.23219	0.63387	-0.00556	1.33314	0.50721	0.07192	1.23977	0.61420	0.02786	1.29164	0.34020	0.08530	1.17354	0.10565	0.14620	1.32429	-0.05482	0.06857	1.50024	0.09008	-0.05155	1.71227	-0.02159	-0.09970	1.33560	-0.06524 
2856	23.792	-0.03976	1.56077	0.10574	-0.10707	1.36851	0.00038	-0.02502	1.71740	-0.12335	-0.02170	1.45114	0.26529	-0.10475	1.47622	0.06941	-0.02616	1.39064	0.38554	0.11187	1.48718	-0.07014	0.07044	1.80859	0.02770	0.08960	1.82646	-0.07279	-0.08619	1.52996	-0.07925	-0.02583	1.23269	0.63410	-0.00553	1.33357	0.50733	0.07195	1.24030	0.61445	0.02791	1.29189	0.34037	0.08540	1.17355	0.10568	0.14623	1.32429	-0.05485	0.06861	1.50027	0.09003	-0.05159	1.71229	-0.02161	-0.09961	1.33558	-0.06522 
2857	23.800	-0.03976	1.56087	0.10568	-0.10700	1.36850	0.00041	-0.02494	1.71742	-0.12330	-0.02165	1.45134	0.26532	-0.10469	1.47624	0.06939	-0.02612	1.39095	0.38563	0.11195	1.48721	-0.07008	0.07042	1.80856	0.02773	0.08960	1.82647	-0.07278	-0.08616	1.52993	-0.07926	-0.02579	1.23316	0.63432	-0.00548	1.33397	0.50745	0.07203	1.24084	0.61466	0.02800	1.29213	0.34052	0.08543	1.17353	0.10568	0.14633	1.32432	-0.05472	0.06862	1.50033	0.09000	-0.05155	1.71227	-0.02161	-0.09955	1.33557	-0.06522 
2858	23.808	-0.03976	1.56091	0.10559	-0.10694	1.36853	0.00042	-0.02493	1.71740	-0.12332	-0.02150	1.45098	0.26484	-0.10466	1.47626	0.06938	-0.02576	1.39173	0.38672	0.11199	1.48723	-0.07009	0.07043	1.80856	0.02772	0.08958	1.82648	-0.07284	-0.08613	1.52993	-0.07927	-0.02571	1.23361	0.63445	-0.00540	1.33437	0.50759	0.07203	1.24134	0.61488	0.02804	1.29238	0.34071	0.08549	1.17353	0.10569	0.14648	1.32423	-0.05464	0.06867	1.50036	0.09001	-0.05157	1.71226	-0.02159	-0.09946	1.33556	-0.06520 
2859	23.817	-0.03971	1.56096	0.10560	-0.10689	1.36854	0.00042	-0.02491	1.71740	-0.12336	-0.02145	1.45120	0.26491	-0.10461	1.47629	0.06938	-0.02576	1.39203	0.38679	0.11201	1.48723	-0.07009	0.07047	1.80857	0.02775	0.08956	1.82648	-0.07284	-0.08611	1.52994	-0.07928	-0.02566	1.23411	0.63464	-0.00536	1.33478	0.50770	0.07212	1.24189	0.61508	0.02818	1.29268	0.34090	0.08553	1.17351	0.10568	0.14640	1.32435	-0.05474	0.06868	1.50042	0.08996	-0.05189	1.71309	-0.02191	-0.09942	1.33558	-0.06522 
2860	23.825	-0.03968	1.56104	0.10553	-0.10682	1.36855	0.00043	-0.02491	1.71735	-0.12337	-0.02141	1.45140	0.26494	-0.10458	1.47630	0.06937	-0.02571	1.39238	0.38684	0.11206	1.48724	-0.07008	0.07054	1.80864	0.02778	0.08951	1.82648	-0.07287	-0.08605	1.52994	-0.07929	-0.02557	1.23458	0.63482	-0.00523	1.33558	0.50734	0.07227	1.24232	0.61530	0.02838	1.29305	0.34111	0.08555	1.17353	0.10569	0.14645	1.32434	-0.05469	0.06869	1.50047	0.08994	-0.05151	1.71224	-0.02163	-0.09941	1.33559	-0.06523 
